# xmcd
#
# Track frame offsets: 
#        150
#        9987
#        22549
#        32666
#        42551
#        56392
#        67579
#        75563
#        85609
#        97084
#        109657
#        119506
#        132016
#        142970
#        154173
#        163323
#        177421
#        188206
#
# Disc length: 2687 seconds
#
# Revision: 0
# Processed by: cddbd v1.5.2PL0 Copyright (c) Steve Scherf et al.
# Submitted via: ExactAudioCopy v0.95b4
#
DISCID=da0a7d12
DTITLE=Jim Reeves - Distant Drums - The Collection [CD2)
DYEAR=2007
DGENRE=Easy Listening
TTITLE0=It Hurts So Much (To See You Go)
TTITLE1=Not Until The Next Time
TTITLE2=Is It Really Over?
TTITLE3=When Two Worlds Collide
TTITLE4=Whispering Hope
TTITLE5=How Long Has It Been?
TTITLE6=Trying To Forget
TTITLE7=I Heard A Heart Break Last Night
TTITLE8=Love Is No Excuse (With Dottie West)
TTITLE9=Take Me In Your Arms and Hold Me
TTITLE10=But You Love Me Daddy
TTITLE11=Nobody's Fool
TTITLE12=Angels Don't Lie
TTITLE13=Moonlight and Roses
TTITLE14=You're Free To Go
TTITLE15=This Is It
TTITLE16=I Guess I'm Crazy
TTITLE17=Have You Ever Been Lonely? (Have You Ever Been Blue?) (With P
TTITLE17=atsy Cline)
EXTD=
EXTT0=
EXTT1=
EXTT2=
EXTT3=
EXTT4=
EXTT5=
EXTT6=
EXTT7=
EXTT8=
EXTT9=
EXTT10=
EXTT11=
EXTT12=
EXTT13=
EXTT14=
EXTT15=
EXTT16=
EXTT17=
PLAYORDER=
